<svg width="179" height="36" viewBox="0 0 179 36" fill="none" xmlns="http://www.w3.org/2000/svg">
<rect width="179" height="36" fill="#818181"/>
<g id="&#208;&#161;&#209;&#130;&#208;&#176;&#209;&#130;&#209;&#140;&#209;&#143;" clip-path="url(#clip0_0_1)" filter="url(#filter0_d_0_1)">
<g id="&#208;&#161;&#209;&#130;&#208;&#176;&#209;&#130;&#209;&#140;&#209;&#143;_2" clip-path="url(#clip1_0_1)">
<rect width="1440" height="5707" transform="translate(-376 -4679)" fill="white"/>
<g id="Auto Layout Vertical">
<g id="Group">
<line id="Line" x1="112.875" y1="17.5" x2="178.875" y2="17.5" stroke="#0063A8"/>
<line id="Line_2" x1="0.125" y1="17.5" x2="66.125" y2="17.5" stroke="#0063A8"/>
<g id="Group_2">
<circle id="Ellipse" cx="89" cy="18" r="16" stroke="#0063A8" stroke-width="2.76396" stroke-dasharray="0.98 8.39"/>
<g id="Union">
<mask id="path-4-inside-1_0_1" fill="white">
<path fill-rule="evenodd" clip-rule="evenodd" d="M88.3889 6.81244L81.4831 19.9672C81.1336 20.6331 81.6165 21.4321 82.3685 21.4321H86.0514L85.8715 27.9452C85.813 30.0634 88.6566 30.8062 89.6415 28.9301L96.5473 15.7753C96.8969 15.1094 96.414 14.3105 95.6619 14.3105H91.979L92.159 7.7973C92.2175 5.67913 89.3738 4.93628 88.3889 6.81244Z"/>
</mask>
<path fill-rule="evenodd" clip-rule="evenodd" d="M88.3889 6.81244L81.4831 19.9672C81.1336 20.6331 81.6165 21.4321 82.3685 21.4321H86.0514L85.8715 27.9452C85.813 30.0634 88.6566 30.8062 89.6415 28.9301L96.5473 15.7753C96.8969 15.1094 96.414 14.3105 95.6619 14.3105H91.979L92.159 7.7973C92.2175 5.67913 89.3738 4.93628 88.3889 6.81244Z" fill="#FFDF4E"/>
<path d="M81.4831 19.9672L82.712 20.6123H82.712L81.4831 19.9672ZM88.3889 6.81244L89.6177 7.45753V7.45753L88.3889 6.81244ZM86.0514 21.4321L87.4388 21.4704L87.4782 20.0442H86.0514V21.4321ZM85.8715 27.9452L84.4842 27.9069L85.8715 27.9452ZM89.6415 28.9301L88.4127 28.285L89.6415 28.9301ZM96.5473 15.7753L97.7761 16.4204L96.5473 15.7753ZM91.979 14.3105L90.5917 14.2721L90.5523 15.6983H91.979V14.3105ZM92.159 7.7973L93.5463 7.83563L92.159 7.7973ZM82.712 20.6123L89.6177 7.45753L87.1601 6.16735L80.2543 19.3222L82.712 20.6123ZM82.3685 20.0442C82.6602 20.0442 82.8475 20.3541 82.712 20.6123L80.2543 19.3222C79.4196 20.9122 80.5728 22.8199 82.3685 22.8199V20.0442ZM86.0514 20.0442H82.3685V22.8199H86.0514V20.0442ZM87.2588 27.9835L87.4388 21.4704L84.6641 21.3937L84.4842 27.9069L87.2588 27.9835ZM88.4127 28.285C88.1113 28.8592 87.2409 28.6319 87.2588 27.9835L84.4842 27.9069C84.385 31.4949 89.202 32.7533 90.8704 29.5752L88.4127 28.285ZM95.3185 15.1302L88.4127 28.285L90.8704 29.5752L97.7761 16.4204L95.3185 15.1302ZM95.6619 15.6983C95.3702 15.6983 95.1829 15.3884 95.3185 15.1302L97.7761 16.4204C98.6108 14.8304 97.4577 12.9226 95.6619 12.9226V15.6983ZM91.979 15.6983H95.6619V12.9226H91.979V15.6983ZM90.7716 7.75897L90.5917 14.2721L93.3663 14.3488L93.5463 7.83563L90.7716 7.75897ZM89.6177 7.45753C89.9192 6.8833 90.7896 7.11065 90.7716 7.75897L93.5463 7.83563C93.6454 4.24762 88.8285 2.98925 87.1601 6.16735L89.6177 7.45753Z" fill="#0063A8" mask="url(#path-4-inside-1_0_1)"/>
</g>
</g>
</g>
</g>
</g>
</g>
<defs>
<filter id="filter0_d_0_1" x="-380" y="-4679" width="1448" height="6017" filterUnits="userSpaceOnUse" color-interpolation-filters="sRGB">
<feFlood flood-opacity="0" result="BackgroundImageFix"/>
<feColorMatrix in="SourceAlpha" type="matrix" values="0 0 0 0 0 0 0 0 0 0 0 0 0 0 0 0 0 0 127 0" result="hardAlpha"/>
<feOffset dy="4"/>
<feGaussianBlur stdDeviation="2"/>
<feComposite in2="hardAlpha" operator="out"/>
<feColorMatrix type="matrix" values="0 0 0 0 0 0 0 0 0 0 0 0 0 0 0 0 0 0 0.25 0"/>
<feBlend mode="normal" in2="BackgroundImageFix" result="effect1_dropShadow_0_1"/>
<feBlend mode="normal" in="SourceGraphic" in2="effect1_dropShadow_0_1" result="shape"/>
</filter>
<clipPath id="clip0_0_1">
<rect width="1440" height="6009" fill="white" transform="translate(-376 -4679)"/>
</clipPath>
<clipPath id="clip1_0_1">
<rect width="1440" height="5707" fill="white" transform="translate(-376 -4679)"/>
</clipPath>
</defs>
</svg>
